<svg width="81" height="81" viewBox="0 0 81 81" fill="none" xmlns="http://www.w3.org/2000/svg">
<path d="M40.4146 0C18.1286 0 0 18.1303 0 40.4146C0 62.6988 18.1286 80.8291 40.4146 80.8291C62.7005 80.8291 80.8291 62.6988 80.8291 40.4146C80.8291 18.1303 62.7005 0 40.4146 0ZM40.4146 77.4613C19.9869 77.4613 3.36783 60.8422 3.36783 40.4146C3.36783 19.9869 19.9869 3.36783 40.4146 3.36783C60.8422 3.36783 77.4613 19.9869 77.4613 40.4146C77.4613 60.8422 60.8422 77.4613 40.4146 77.4613Z" fill="white"/>
<path d="M56.4815 38.9987L32.9064 23.8432C32.39 23.5062 31.7224 23.488 31.1896 23.7807C30.6468 24.0767 30.3113 24.6425 30.3113 25.2591V55.5701C30.3113 56.1867 30.6468 56.7525 31.1896 57.0485C31.4395 57.1851 31.7191 57.2541 31.9953 57.2541C32.3111 57.2541 32.6301 57.1652 32.9064 56.986L56.4815 41.8305C56.9617 41.5214 57.2544 40.9869 57.2544 40.4146C57.2544 39.8423 56.9617 39.3079 56.4815 38.9987ZM33.6792 52.485V28.3442L52.4558 40.4146L33.6792 52.485Z" fill="white"/>
</svg>
